<svg xmlns="http://www.w3.org/2000/svg" width="140.479" height="45.111" viewBox="0 0 140.479 45.111">
  <g id="Group_10048" data-name="Group 10048" transform="translate(-140 -51)">
    <text id="CRONJ" transform="translate(188.479 83)" fill="#fff" font-size="25" font-family="NasalizationRg-Regular, Nasalization"><tspan x="0" y="0">CRONJ</tspan></text>
    <g id="Group_9025" data-name="Group 9025" transform="translate(140 53)">
      <path id="Path_14" data-name="Path 14" d="M231.353,144.644h5.675a.827.827,0,0,1,.811,1,19.2,19.2,0,0,1-8.121,11.963s-9.483,5.69-18.46,1.224c-.018-.009-.037-.017-.056-.025-.671-.26-13.452-5.692-10.86-22.281,0,0,2.419-13.478,18.144-14.688,0,0,7.6-.864,14.515,6.048a21.621,21.621,0,0,1,4.8,8.478.828.828,0,0,1-.805,1.026h-5.666a.825.825,0,0,1-.765-.511c-.663-1.613-3.1-6.543-8.4-7.43a.73.73,0,0,1-.088-.02,11.918,11.918,0,0,0-11.212,2.8,12.785,12.785,0,0,0-3.63,12.889c1.058,3.629,3.91,7.474,11.081,8.338a11.686,11.686,0,0,0,12.258-8.255A.829.829,0,0,1,231.353,144.644Z" transform="translate(-199.995 -117.428)" fill="#00fff8"/>
      <path id="Path_16" data-name="Path 16" d="M0,0H7.171" transform="translate(13.134 22.896)" fill="none" stroke="#ff7272" stroke-linecap="round" stroke-width="4"/>
      <path id="Path_17" data-name="Path 17" d="M0,0V22.81" transform="translate(20.304)" fill="none" stroke="#ff7272" stroke-linecap="round" stroke-width="4"/>
      <path id="Path_15" data-name="Path 15" d="M256.383,174a10.305,10.305,0,0,0-8.467,9.5s-.864,10.022,9.5,11.75c0,0,5.011.518,8.122-2.592" transform="translate(-239.621 -160.608)" fill="none" stroke="#00fff8" stroke-linecap="round" stroke-width="1"/>
    </g>
  </g>
</svg>
